<svg id="Calque_1" data-name="Calque 1" xmlns="http://www.w3.org/2000/svg" viewBox="0 0 345.36 68.14">
    <defs>
        <style>.cls-1{fill:#efc111;}.cls-2{fill:#1e3b8a;}</style>
    </defs>
    <path class="cls-1"
          d="M34.07,68.14A34.07,34.07,0,1,0,0,34.06v0A34.1,34.1,0,0,0,34.07,68.14m0-61.44A27.38,27.38,0,1,1,6.7,34.09h0A27.41,27.41,0,0,1,34.07,6.7M50.74,34.76a2.88,2.88,0,0,1-.35,3.73c-.38.34-.33.64-.06,1.15a2.76,2.76,0,0,1-.8,3.15c-.38.2-.27.49-.09.89a2.76,2.76,0,0,1-1.88,3.41,2.68,2.68,0,0,1-.89.1H31.19a2.59,2.59,0,0,1-2-.87,1.16,1.16,0,0,0-.68-.15V31.37h1.7c.71,0,3.48-5,4.13-6,1-1.52,3.9-3,4.92-5.51.71-1.7.76-4.65,2.66-4.65,2.06,0,3,2.89,3,4.54a8.13,8.13,0,0,1-1.52,4.83c-.69,1.1-1.57,1.87-1.57,2.64,0,1,.74,1,1.6,1H48c1.34,0,3.28,1.37,3.35,2.89s-.26,2.13-.63,2.49a.79.79,0,0,0,0,1.12S50.72,34.75,50.74,34.76Zm-33.92-5v19H27.59v-19Z"
          transform="translate(-0.01 0)"/>
    <path class="cls-2"
          d="M103.18,42.88a2.85,2.85,0,0,1-2.37-1.34l-7.6-11.76V45.12H94A2.44,2.44,0,1,1,94,50H86.87a2.44,2.44,0,1,1,0-4.88h.82V22.71h-.82a2.44,2.44,0,1,1,0-4.88h3.87a3.19,3.19,0,0,1,2.76,1.68l9.68,15.72,9.87-16.06a2.65,2.65,0,0,1,2.57-1.34h3.87a2.44,2.44,0,1,1,0,4.88h-.82V45.12h.82a2.44,2.44,0,1,1,0,4.88h-7.16a2.44,2.44,0,1,1,0-4.88h.82V29.78l-7.6,11.76A2.85,2.85,0,0,1,103.18,42.88Z"
          transform="translate(-0.01 0)"/>
    <path class="cls-2"
          d="M148.19,50a2.44,2.44,0,1,1,0-4.88H149l-1.41-3.53H136l-1.45,3.53h.73a2.44,2.44,0,1,1,0,4.88H128a2.44,2.44,0,1,1,0-4.88h.72l9.06-22.41h-1a2.44,2.44,0,1,1,0-4.88H142a2.81,2.81,0,0,1,2.51,1.72l10.36,25.57h.63a2.44,2.44,0,1,1,0,4.88ZM137.88,36.61h7.79L141.8,26.1Z"
          transform="translate(-0.01 0)"/>
    <path class="cls-2"
          d="M178.92,50a2.44,2.44,0,1,1,0-4.88h.25l-4.89-6.93-4.7,6.93H170A2.44,2.44,0,1,1,170,50h-7.6a2.44,2.44,0,1,1,0-4.88H163l8.28-11.61-8-10.8h-.77a2.44,2.44,0,1,1,0-4.88h7.4a2.44,2.44,0,0,1,.1,4.88l4.5,6.31,4.79-6.31h-.19a2.44,2.44,0,1,1,0-4.88h7.45a2.44,2.44,0,1,1,0,4.88h-.77l-8.28,10.94,8.47,11.47h.58a2.44,2.44,0,1,1,0,4.88Z"
          transform="translate(-0.01 0)"/>
    <path class="cls-2"
          d="M216.53,20.94V41.13c0,5.8-2.46,9.52-9.16,9.52a11.61,11.61,0,0,1-5.21-1.1,1.57,1.57,0,0,1,.68-3,2,2,0,0,1,1,.29,7.68,7.68,0,0,0,3.57.76c4.24,0,5.88-2.29,5.88-6.47V20.94h-2.7a1.42,1.42,0,0,1-1.49-1.47A1.46,1.46,0,0,1,210.55,18h7.76a1.47,1.47,0,0,1,1.5,1.48,1.43,1.43,0,0,1-1.5,1.47Z"
          transform="translate(-0.01 0)"/>
    <path class="cls-2"
          d="M247.81,48.74A1.46,1.46,0,0,1,246.32,50H226.94a1.44,1.44,0,0,1-1.5-1.48,1.46,1.46,0,0,1,1.5-1.47h1.73V20.94h-1.73a1.43,1.43,0,0,1-1.5-1.47,1.47,1.47,0,0,1,1.5-1.48h18.85a1.43,1.43,0,0,1,1.49,1.48v3.62a1.43,1.43,0,0,1-1.49,1.47,1.47,1.47,0,0,1-1.5-1.47V20.94H232V32.42h10.61a1.48,1.48,0,1,1,0,2.95H232V47.08h12.87V44.93a1.47,1.47,0,0,1,1.5-1.47,1.43,1.43,0,0,1,1.49,1.47Z"
          transform="translate(-0.01 0)"/>
    <path class="cls-2"
          d="M278.71,20.94V40.27c0,5.24-2.17,10.42-11.28,10.42S256.1,45.51,256.1,40.27V20.94h-1.78a1.43,1.43,0,0,1-1.5-1.47,1.47,1.47,0,0,1,1.5-1.48h7.08a1.47,1.47,0,0,1,1.5,1.48,1.43,1.43,0,0,1-1.5,1.47h-2V40.27c0,3.76,1.4,7.38,8.05,7.38s8-3.62,8-7.38V20.94h-2a1.43,1.43,0,0,1-1.5-1.47,1.47,1.47,0,0,1,1.5-1.48h7.08a1.47,1.47,0,0,1,1.5,1.48,1.43,1.43,0,0,1-1.5,1.47Z"
          transform="translate(-0.01 0)"/>
    <path class="cls-2"
          d="M289,50a1.43,1.43,0,0,1-1.49-1.48A1.45,1.45,0,0,1,289,47.08h1.79V20.94H289a1.42,1.42,0,0,1-1.49-1.47A1.46,1.46,0,0,1,289,18h3.62a1.55,1.55,0,0,1,1.35.76L310.76,43.6V20.94h-1.83a1.42,1.42,0,0,1-1.49-1.47A1.46,1.46,0,0,1,308.93,18h6.85a1.47,1.47,0,0,1,1.49,1.48,1.43,1.43,0,0,1-1.49,1.47h-1.84V48.79a1.62,1.62,0,0,1-1.63,1.62,1.46,1.46,0,0,1-1.35-.67L294,24.47V47.08h1.88a1.46,1.46,0,0,1,1.49,1.47A1.44,1.44,0,0,1,295.87,50Z"
          transform="translate(-0.01 0)"/>
    <path class="cls-2"
          d="M345.37,48.74A1.46,1.46,0,0,1,343.88,50H324.5a1.44,1.44,0,0,1-1.5-1.48,1.46,1.46,0,0,1,1.5-1.47h1.73V20.94H324.5a1.43,1.43,0,0,1-1.5-1.47A1.47,1.47,0,0,1,324.5,18h18.85a1.43,1.43,0,0,1,1.49,1.48v3.62a1.43,1.43,0,0,1-1.49,1.47,1.47,1.47,0,0,1-1.5-1.47V20.94H329.51V32.42h10.61a1.48,1.48,0,1,1,0,2.95H329.51V47.08h12.87V44.93a1.47,1.47,0,0,1,1.5-1.47,1.43,1.43,0,0,1,1.49,1.47Z"
          transform="translate(-0.01 0)"/>
</svg>
