<svg width="22" height="22" viewBox="0 0 40 40" fill="none" xmlns="http://www.w3.org/2000/svg">
    <path d="M14.5167 23.8166C14.2822 23.5857 13.9846 23.4293 13.6614 23.367C13.3382 23.3047 13.0038 23.3394 12.7003 23.4666C12.4935 23.5415 12.3057 23.661 12.1502 23.8165C11.9947 23.972 11.8752 24.1598 11.8003 24.3666C11.6922 24.6201 11.6486 24.8964 11.6735 25.1709C11.6984 25.4453 11.7909 25.7093 11.9428 25.9392C12.0947 26.1692 12.3012 26.3578 12.5439 26.4884C12.7866 26.6189 13.0579 26.6872 13.3335 26.6872C13.6091 26.6872 13.8803 26.6189 14.123 26.4884C14.3657 26.3578 14.5723 26.1692 14.7242 25.9392C14.8761 25.7093 14.9686 25.4453 14.9935 25.1709C15.0184 24.8964 14.9748 24.6201 14.8667 24.3666C14.7824 24.1646 14.664 23.9785 14.5167 23.8166ZM27.85 23.8166C27.5278 23.5191 27.1053 23.3539 26.6668 23.3539C26.2282 23.3539 25.8057 23.5191 25.4835 23.8166C25.3362 23.9786 25.2178 24.1647 25.1335 24.3667C25.0034 24.6698 24.9673 25.0049 25.0296 25.3287C25.092 25.6525 25.2501 25.9502 25.4834 26.1833C25.6453 26.3306 25.8314 26.4489 26.0335 26.5333C26.233 26.6213 26.4486 26.6667 26.6666 26.6667C26.8847 26.6667 27.1003 26.6213 27.2998 26.5333C27.5016 26.4486 27.6876 26.3302 27.8499 26.1833C28.0832 25.9502 28.2413 25.6526 28.3036 25.3288C28.366 25.005 28.3299 24.6699 28.1999 24.3669C28.1156 24.1647 27.9973 23.9786 27.85 23.8166ZM32.1824 31.4921C33.3623 30.5516 34.263 29.3067 34.7871 27.8917C35.3112 26.4768 35.4389 24.9456 35.1563 23.4634L32.6563 10.1301C32.2979 8.22019 31.2834 6.4956 29.7882 5.2545C28.2929 4.0134 26.411 3.33382 24.4678 3.33325H15.5323C13.5891 3.33384 11.7071 4.01344 10.2119 5.25455C8.7167 6.49566 7.70218 8.22025 7.34377 10.1301L4.84377 23.4635C4.56125 24.9456 4.68893 26.4769 5.21304 27.8918C5.73715 29.3067 6.63778 30.5516 7.81771 31.4921L5.48836 33.8216C5.33131 33.9758 5.20637 34.1596 5.12076 34.3624C5.03514 34.5652 4.99055 34.7829 4.98955 35.003C4.98856 35.2232 5.03117 35.4413 5.11495 35.6448C5.19872 35.8484 5.32199 36.0333 5.47764 36.189C5.63328 36.3446 5.81822 36.4679 6.02177 36.5517C6.22532 36.6354 6.44345 36.6781 6.66357 36.6771C6.88368 36.6761 7.10141 36.6315 7.3042 36.5459C7.50698 36.4602 7.6908 36.3353 7.84502 36.1783L10.9603 33.063C11.6369 33.2396 12.333 33.3304 13.0323 33.3333H26.9678C27.667 33.3304 28.3631 33.2396 29.0397 33.0631L32.155 36.1783C32.4685 36.4861 32.8909 36.6577 33.3302 36.6557C33.7696 36.6537 34.1904 36.4783 34.5011 36.1676C34.8117 35.8569 34.9872 35.4362 34.9892 34.9968C34.9911 34.5574 34.8195 34.1351 34.5117 33.8216L32.1824 31.4921ZM10.6185 10.7454C10.834 9.59948 11.4429 8.56484 12.3401 7.82013C13.2372 7.07542 14.3663 6.66741 15.5323 6.66659H24.4678C25.6338 6.66741 26.7628 7.07542 27.66 7.82013C28.5571 8.56484 29.1661 9.59948 29.3815 10.7454L29.9593 13.8269C28.715 15.2429 27.1831 16.3772 25.4657 17.1542C23.7483 17.9313 21.885 18.3333 20 18.3333C18.115 18.3333 16.2517 17.9313 14.5343 17.1542C12.817 16.3772 11.285 15.2429 10.0407 13.8269L10.6185 10.7454ZM30.8138 28.1933C30.3456 28.7593 29.7579 29.2147 29.093 29.5271C28.4281 29.8394 27.7024 30.0009 26.9678 29.9999H13.0323C12.2977 29.9997 11.5722 29.8376 10.9074 29.5252C10.2426 29.2128 9.65473 28.7579 9.18564 28.1926C8.71656 27.6273 8.37775 26.9657 8.19332 26.2546C8.00888 25.5436 7.98334 24.8007 8.11851 24.0787L9.30361 17.7581C12.2963 20.2821 16.0851 21.6666 20 21.6666C23.915 21.6666 27.7038 20.2821 30.6964 17.7581L31.8815 24.0787C32.0179 24.8008 31.9929 25.5442 31.8084 26.2555C31.6238 26.9669 31.2841 27.6286 30.8138 28.1933Z" fill="#F3F3EB"/>
</svg>
